<svg xmlns="http://www.w3.org/2000/svg" xmlns:xlink="http://www.w3.org/1999/xlink" id="Capa_1" x="0" y="0" version="1.1" viewBox="0 0 512 512" xml:space="preserve" style="enable-background:new 0 0 512 512"><path style="fill:#ccefff" d="M512,512H0V0h512V512z"/><path style="fill:#ace3fc" d="M512,512H256V0h256V512z"/><path style="fill:#57565c" d="M482,482H30V30h452V482z"/><path style="fill:#3e3d42" d="M482,482H256V30h226V482z"/><path style="fill:#ccefff" d="M161.619,352V181.6h33.12v141.36h86.88V352H161.619z"/><g><path style="fill:#ace3fc" d="M373.54,254.08c-28.29,0-39.36,14.64-42.72,21.84V352h-32.16V226.24h29.52v26.88 c2.239-4.32,16.32-31.37,45.36-28.32L373.54,254.08L373.54,254.08z"/><rect style="fill:#ace3fc" width="25.619" height="29.04" x="256" y="322.96"/></g></svg>