<svg id="Capa_1" enable-background="new 0 0 512 512" height="512" viewBox="0 0 512 512" width="512" xmlns="http://www.w3.org/2000/svg"><g><g fill="#ea9b58"><path d="m180 344.507h33.722c-12.532-3.981-23.966-10.446-33.722-18.815z"/><path d="m332 344.507v-18.815c-9.757 8.37-21.191 14.835-33.722 18.815z"/></g><path d="m461.87 405.343-113.762-17.676c-2.509-.39-4.36-2.55-4.36-5.09v-33.919c0-2.845-2.306-5.151-5.151-5.151h-37.348c-10.09 3.572-20.939 5.522-32.237 5.522h-26.023c-11.298 0-22.147-1.951-32.237-5.522h-37.348c-2.845 0-5.151 2.306-5.151 5.151v33.919c0 2.539-1.851 4.7-4.36 5.09l-113.763 17.676c-12.547 1.949-21.8 12.752-21.8 25.449v76.057c0 2.845 2.306 5.151 5.151 5.151h445.038c2.845 0 5.151-2.306 5.151-5.151v-76.057c0-12.697-9.254-23.5-21.8-25.449z" fill="#fef1da"/><g><path d="m269.012 350.03h-26.024c-.644 0-1.285-.012-1.926-.024v161.994h29.875v-161.995c-.64.013-1.281.025-1.925.025z" fill="#fae2c0"/></g><g><g><path d="m64.386 506.488v-81.391c0-10.344 5.747-19.499 14.411-24.208l-28.667 4.454c-12.547 1.949-21.8 12.752-21.8 25.449v76.057c0 2.845 2.306 5.151 5.151 5.151h36.418c-3.045 0-5.513-2.468-5.513-5.512z" fill="#fae2c0"/></g></g><g><path d="m365.879 182.537h19.48c2.646 0 5.2.398 7.609 1.132v-51.049l-7.772-1h-19.318v50.917z" fill="#554e56"/><path d="m126.641 182.537h19.48v-50.917h-19.318l-7.772 1v51.049c2.41-.734 4.964-1.132 7.61-1.132z" fill="#433f43"/></g><g><path d="m146.121 252.163v-70.625h-19.48c-15.009 0-27.176 12.167-27.176 27.176v20.654c0 15.009 12.167 27.176 27.176 27.176h19.583c-.064-1.453-.103-2.913-.103-4.381z" fill="#ea9b58"/><g fill="#d88a55"><path d="m119 229.367v-20.654c0-14.99 12.138-27.145 27.121-27.175v-.001h-19.48c-15.009 0-27.176 12.167-27.176 27.176v20.654c0 15.009 12.167 27.176 27.176 27.176h19.535c-15.009 0-27.176-12.167-27.176-27.176z"/><path d="m385.359 181.537h-19.48v70.625c0 1.469-.039 2.928-.104 4.381h19.583c15.009 0 27.176-12.167 27.176-27.176v-20.654c.001-15.009-12.166-27.176-27.175-27.176z"/></g></g><g><path d="m154.121 215.928c0 44.406 36.127 80.533 80.533 80.533h42.691c44.406 0 80.533-36.127 80.533-80.533v-84.308h-203.757z" fill="#ea9b58"/></g><g><path d="m224.567 294.799c-28.058-15.117-47.13-44.766-47.13-78.871v-83.308h-22.316v83.308c0 40.436 30.34 73.896 69.446 78.871z" fill="#d88a55"/></g><g><path d="m265.24 246.502h-13.044c-10.129 0-18.371-8.241-18.371-18.371v-40.124c0-4.142 3.358-7.5 7.5-7.5s7.5 3.358 7.5 7.5v40.124c0 1.858 1.512 3.371 3.371 3.371h10.98v-6.631c0-4.142 3.358-7.5 7.5-7.5s7.5 3.358 7.5 7.5v8.696c-.001 7.132-5.803 12.935-12.936 12.935z" fill="#883f2e"/></g><g><g><path d="m196.756 210.547c-4.142 0-7.5-3.358-7.5-7.5v-15.136c0-4.142 3.358-7.5 7.5-7.5s7.5 3.358 7.5 7.5v15.136c0 4.142-3.358 7.5-7.5 7.5z" fill="#883f2e"/></g><g><path d="m315.244 210.547c-4.142 0-7.5-3.358-7.5-7.5v-15.136c0-4.142 3.358-7.5 7.5-7.5s7.5 3.358 7.5 7.5v15.136c0 4.142-3.358 7.5-7.5 7.5z" fill="#883f2e"/></g></g><g><g><path d="m217.953 168.208h-43.482c-4.142 0-7.5-3.358-7.5-7.5s3.358-7.5 7.5-7.5h43.482c4.142 0 7.5 3.358 7.5 7.5s-3.358 7.5-7.5 7.5z" fill="#433f43"/></g><g><path d="m337.529 168.208h-43.482c-4.142 0-7.5-3.358-7.5-7.5s3.358-7.5 7.5-7.5h43.482c4.142 0 7.5 3.358 7.5 7.5s-3.358 7.5-7.5 7.5z" fill="#433f43"/></g></g><g><path d="m256 284.619c-14.554 0-29.107-5.54-40.187-16.62-2.929-2.929-2.929-7.678 0-10.606 2.929-2.929 7.678-2.929 10.606 0 16.311 16.311 42.851 16.311 59.161 0 2.929-2.929 7.678-2.929 10.606 0 2.929 2.929 2.929 7.678 0 10.606-11.079 11.08-25.632 16.62-40.186 16.62z" fill="#883f2e"/></g><g><g><g><circle cx="217.25" cy="380.652" fill="#47a920" r="7.5"/></g></g><g><g><circle cx="294.75" cy="380.652" fill="#47a920" r="7.5"/></g></g></g><g><g><g><circle cx="217.25" cy="431.131" fill="#47a920" r="7.5"/></g></g><g><g><circle cx="294.75" cy="431.131" fill="#47a920" r="7.5"/></g></g></g><g><g><g><circle cx="217.25" cy="481.61" fill="#47a920" r="7.5"/></g></g><g><g><circle cx="294.75" cy="481.61" fill="#47a920" r="7.5"/></g></g></g><path d="m356.879 132.62v83.308c0 43.855-35.678 79.533-79.533 79.533h-42.691c-43.855 0-79.533-35.678-79.533-79.533v-83.308h-10v119.543c0 54.051 43.817 97.867 97.867 97.867h26.024c54.05 0 97.867-43.817 97.867-97.867v-119.543z" fill="#554e56"/><g><path d="m179.507 273.155c-15.016-14.476-24.386-34.772-24.386-57.227v-83.308h-10v119.543c0 54.051 43.817 97.867 97.867 97.867h26.024c1.02 0 2.036-.021 3.049-.052-45.486-1.393-83.154-33.82-92.554-76.823z" fill="#433f43"/></g><path d="m385.376 101.958 6.147-1c-8.943-57.197-58.424-100.958-118.13-100.958h-34.786c-59.706 0-109.188 43.761-118.13 100.958l6.147 1z" fill="#fef1da"/><g><path d="m283.015.389c-3.175-.252-6.382-.389-9.622-.389h-34.786c-59.706 0-109.188 43.761-118.13 100.958h54.03c8.458-54.093 53.176-96.161 108.508-100.569z" fill="#fae2c0"/></g><g><path d="m120.477 100.958c-.949 6.067-1.445 12.284-1.445 18.618v13.044h273.936v-13.044c0-6.334-.497-12.551-1.445-18.618z" fill="#4fc123"/></g><g><path d="m174.093 100.958h-53.615c-.949 6.067-1.445 12.284-1.445 18.618v13.045h53.615v-13.045c-.001-6.334.496-12.551 1.445-18.618z" fill="#47a920"/></g></g></svg>